{"title":"Der Kommissar Und Das Meer 3DVDrip German Klam","uid":6952685,"size":6812660868,"categoryP":"video","categoryS":"movies","magnet":"?xt=urn:btih:981a12383c69b14b3ae4c1939792f53237ba36ea&amp;dn=Der+Kommissar+Und+Das+Meer+3DVDrip+German+Klam&amp;tr=udp%3A%2F%2Ftracker.openbittorrent.com%3A80&amp;tr=udp%3A%2F%2Fopen.demonii.com%3A1337&amp;tr=udp%3A%2F%2Ftracker.coppersurfer.tk%3A6969&amp;tr=udp%3A%2F%2Fexodus.desync.com%3A6969","seeders":2,"leechers":2,"uploader":"Klambake","files":-1,"time":1326460251,"description":"With: Inger Nilsson, Frida Hallgren and Paprika Steen,\nOp het idyllische en mystieke Zweedse eiland Gotland volgen de moordzaken elkaar op. Inspecteur Robert Anders en zijn team gaan tot het uiterste om de zaken tot op de bodem uit te zoeken. Maar of het nu gaat om een slachtoffer dat is vermoord volgens een oud ritueel of om een smokkeloperatie aan de Zweedse kust; de echte hoofdrol is weggelegd voor de adembenemende natuur van Gotland.\n\n01 Den du nicht siehst (Die je niet ziet)\n02 NÃƒÂ¤her als du denkst (Dichterbij dan je denkt)\n03 An einem einsamen Ort (De goden verzoeken)\n04 Sommerzeit (In die heerlijke zomertijd )\n05 Der sterbende Dandy\n\n------------------------ Dutch Friends ------------------------\n---------------------------------------------------------------\n- Bezoek ook eens mijn vrienden op: &lt;a href=&quot; http://www.Film-Test.nl&quot; rel=&quot;nofollow&quot; target=&quot;_NEW&quot;&gt; http://www.Film-Test.nl&lt;/a&gt; --\n----- voor mijn Nederlandse Sync. ondertitels ---- en meer ----\n------- http://www.Film-Test.nl ---- voor Films en meer -------\n---------------------------------------------------------------\n\nGeneral:\n\nComplete name                    : Der Kommissar Und Das Meer\\01 Den du nicht siehst.avi\nFormat                           : AVI\nFormat/Info                      : Audio Video Interleave\nFile size                        : 1.27 GiB\nDuration                         : 1h 29mn\nOverall bit rate                 : 2 038 Kbps\n\nVideo:\n\nFormat                           : MPEG-4 Visual\nFormat profile                   : Simple@L3\nFormat settings, BVOP            : No\nFormat settings, QPel            : No\nFormat settings, GMC             : No warppoints\nFormat settings, Matrix          : Default (H.263)\nCodec ID                         : XVID\nCodec ID/Hint                    : XviD\nDuration                         : 1h 29mn\nBit rate                         : 1 803 Kbps\nWidth                            : 652 pixels\nHeight                           : 352 pixels\nDisplay aspect ratio             : 1.852\nFrame rate                       : 25.000 fps\nColor space                      : YUV\nChroma subsampling               : 4:2:0\nBit depth                        : 8 bits\nScan type                        : Progressive\nCompression mode                 : Lossy\nBits/(Pixel*Frame)               : 0.314\nStream size                      : 1.13 GiB (88%)\nWriting library                  : XviD 1.1.2 (UTC 2006-11-01)\n\nAudio:\n\nFormat                           : AC-3\nFormat/Info                      : Audio Coding 3\nFormat profile                   : Dolby Digital\nMode extension                   : CM (complete main)\nCodec ID                         : 2000\nDuration                         : 1h 29mn\nBit rate mode                    : Constant\nBit rate                         : 224 Kbps\nChannel(s)                       : 2 channels\nChannel positions                : Front: L R\nSampling rate                    : 48.0 KHz\nBit depth                        : 16 bits\nCompression mode                 : Lossy\nStream size                      : 143 MiB (11%)\nAlignment                        : Aligned on interleaves\nInterleave, duration             : 32 ms (0.80 video frame)\nInterleave, preload duration     : 288 ms\n\n","torrent":{"xt":"urn:btih:981a12383c69b14b3ae4c1939792f53237ba36ea","amp;dn":"Der+Kommissar+Und+Das+Meer+3DVDrip+German+Klam","amp;tr":["udp%3A%2F%2Ftracker.openbittorrent.com%3A80","udp%3A%2F%2Fopen.demonii.com%3A1337","udp%3A%2F%2Ftracker.coppersurfer.tk%3A6969","udp%3A%2F%2Fexodus.desync.com%3A6969"],"infoHash":"981a12383c69b14b3ae4c1939792f53237ba36ea","infoHashBuffer":{"type":"Buffer","data":[152,26,18,56,60,105,177,75,58,228,193,147,151,146,245,50,55,186,54,234]},"announce":[],"urlList":[]}}